<svg xmlns="http://www.w3.org/2000/svg" width="500" height="140" viewBox="0 0 250 100" fill="none">
  <title>ArDD lockup — dark</title>
  <g transform="translate(2 8) scale(0.84)">
    <circle cx="50" cy="50" r="34" fill="none" stroke="#6f8a9a" stroke-width="2.5"></circle>
    <rect x="37" y="34" width="26" height="32" rx="4" fill="#2f4858" stroke="#dfe8ed" stroke-width="3.5"></rect>
    <line x1="43" y1="44" x2="57" y2="44" stroke="#dfe8ed" stroke-width="3"></line>
    <line x1="43" y1="50" x2="57" y2="50" stroke="#dfe8ed" stroke-width="3"></line>
    <line x1="43" y1="56" x2="52" y2="56" stroke="#dfe8ed" stroke-width="3"></line>
    <polygon points="7,0 -5,-6 -5,6" fill="#f26419" transform="translate(41 17) rotate(-15)"></polygon>
    <polygon points="7,0 -5,-6 -5,6" fill="#f6ae2d" transform="translate(17 41) rotate(-75)"></polygon>
    <polygon points="7,0 -5,-6 -5,6" fill="#86bbd8" transform="translate(83 59) rotate(105)"></polygon>
    <polygon points="7,0 -5,-6 -5,6" fill="#5b93b8" transform="translate(59 83) rotate(165)"></polygon>
  </g>
  <!-- "ArDD" set in Space Grotesk 700, outlined to paths so it renders identically without the webfont. -->
  <g fill="#eaf1f5">
    <path transform="translate(98 68) scale(0.054 -0.054)" d="M18 0 202 700H432L616 0H480L442 154H192L154 0ZM223 276H411L326 617H308Z"></path>
    <path transform="translate(130.24 68) scale(0.054 -0.054)" d="M70 0V496H194V440H212Q223 470 248.5 484.0Q274 498 308 498H368V386H306Q258 386 227.0 360.5Q196 335 196 282V0Z"></path>
    <path transform="translate(149.62 68) scale(0.054 -0.054)" d="M46 0V116H138V584H46V700H334Q475 700 548.5 628.5Q622 557 622 416V284Q622 143 548.5 71.5Q475 0 334 0ZM270 120H336Q416 120 453.0 162.0Q490 204 490 280V420Q490 497 453.0 538.5Q416 580 336 580H270Z"></path>
    <path transform="translate(183.58 68) scale(0.054 -0.054)" d="M46 0V116H138V584H46V700H334Q475 700 548.5 628.5Q622 557 622 416V284Q622 143 548.5 71.5Q475 0 334 0ZM270 120H336Q416 120 453.0 162.0Q490 204 490 280V420Q490 497 453.0 538.5Q416 580 336 580H270Z"></path>
  </g>
</svg>
